<svg width="30" height="30" viewBox="0 0 30 30" fill="none" xmlns="http://www.w3.org/2000/svg">
<path d="M15 0C9.4859 0 5.00003 4.48402 5.00003 9.99515V20.0054C5.00003 25.5164 9.4859 30 15 30C20.5142 30 25 25.5166 25 20.0054V9.99515C25 4.48402 20.514 0 15 0ZM23.8889 20.0054C23.8889 24.9039 19.9014 28.8889 15 28.8889C10.0987 28.8889 6.11112 24.9039 6.11112 20.0054V9.99515C6.11112 5.09667 10.0987 1.1111 15 1.1111C19.9014 1.1111 23.8889 5.09652 23.8889 9.99515V20.0054Z" fill="white"/>
<path d="M15.0001 3.33329C14.6932 3.33329 14.4444 3.5818 14.4444 3.88891V8.91984C14.4444 9.22695 14.6932 9.47546 15.0001 9.47546C15.3069 9.47546 15.5557 9.22695 15.5557 8.91984V3.88891C15.5555 3.5818 15.3069 3.33329 15.0001 3.33329Z" fill="white"/>
</svg>
