<?xml version="1.0" encoding="utf-8"?><svg viewBox="0 0 100 100" xmlns="http://www.w3.org/2000/svg" xmlns:xlink="http://www.w3.org/1999/xlink"><style>:root>svg{display:none}:root>svg:target{display:block}</style><svg viewBox="0 0 100 100" id="armchair" xmlns="http://www.w3.org/2000/svg"><path d="M75.897 52.661H24.103a4.512 4.512 0 01-4.506-4.506V15.63a4.511 4.511 0 014.506-4.507h51.794a4.511 4.511 0 014.506 4.507v32.524a4.511 4.511 0 01-4.506 4.506zM24.103 13.468a2.165 2.165 0 00-2.163 2.163v32.524a2.165 2.165 0 002.163 2.162h51.794a2.165 2.165 0 002.162-2.162V15.63a2.165 2.165 0 00-2.162-2.163H24.103z"/><path d="M75.897 81.893H24.103a4.512 4.512 0 01-4.506-4.507V54.824a4.512 4.512 0 014.506-4.506h51.794a4.512 4.512 0 014.506 4.506v22.562a4.511 4.511 0 01-4.506 4.507zM24.103 52.66a2.165 2.165 0 00-2.163 2.163v22.562a2.165 2.165 0 002.163 2.163h51.794a2.165 2.165 0 002.162-2.163V54.824a2.165 2.165 0 00-2.162-2.163H24.103z"/><path d="M95.494 81.893H82.566a4.511 4.511 0 01-4.506-4.507V37.844a4.511 4.511 0 014.506-4.506h12.928A4.512 4.512 0 01100 37.844v39.542a4.512 4.512 0 01-4.506 4.507zM82.566 35.68a2.165 2.165 0 00-2.163 2.163v39.542a2.165 2.165 0 002.163 2.163h12.927a2.165 2.165 0 002.163-2.163V37.844a2.165 2.165 0 00-2.163-2.163H82.566zM17.434 81.893H4.507A4.512 4.512 0 010 77.386V37.844a4.512 4.512 0 014.506-4.506h12.928a4.512 4.512 0 014.506 4.506v39.542a4.511 4.511 0 01-4.506 4.507zM4.506 35.68a2.165 2.165 0 00-2.162 2.163v39.542a2.165 2.165 0 002.162 2.163h12.928a2.165 2.165 0 002.162-2.163V37.844a2.165 2.165 0 00-2.162-2.163H4.506z"/><path d="M79.231 67.277H20.77a1.172 1.172 0 010-2.344H79.23a1.172 1.172 0 010 2.344zM10.97 88.876A4.22 4.22 0 016.87 85.67l-1.164-4.667a1.172 1.172 0 011.137-1.455h8.257a1.172 1.172 0 011.137 1.455l-1.164 4.667a4.22 4.22 0 01-4.102 3.205zm-2.628-6.983l.8 3.211a1.884 1.884 0 003.656 0l.8-3.211H8.343zM89.03 88.876a4.22 4.22 0 01-4.102-3.204l-1.164-4.668a1.172 1.172 0 011.137-1.455h8.257a1.172 1.172 0 011.137 1.455l-1.164 4.668a4.22 4.22 0 01-4.101 3.204zM86.4 81.893l.801 3.211a1.884 1.884 0 003.655 0l.801-3.211h-5.257z"/></svg><svg viewBox="0 0 7 12" id="arrow-left" xmlns="http://www.w3.org/2000/svg"><path d="M.478 5.87c0-.21.079-.421.235-.582L5.633.241a.787.787 0 011.132 0 .837.837 0 010 1.162L2.412 5.87l4.353 4.466a.837.837 0 010 1.162.787.787 0 01-1.133 0L.712 6.451a.83.83 0 01-.234-.581z"/></svg><svg viewBox="0 0 7 12" id="arrow-right" xmlns="http://www.w3.org/2000/svg"><path d="M6.522 5.87a.83.83 0 01-.235.58l-4.92 5.048a.787.787 0 01-1.132 0 .837.837 0 010-1.162l4.353-4.467L.235 1.403a.837.837 0 010-1.162.787.787 0 011.133 0l4.92 5.047a.83.83 0 01.234.581z"/></svg><svg fill="none" viewBox="0 0 16 18" id="arrow-top" xmlns="http://www.w3.org/2000/svg"><path d="M8.707.565a1 1 0 00-1.414 0L.929 6.93a1 1 0 001.414 1.415L8 2.687l5.657 5.657a1 1 0 101.414-1.415L8.707.565zM9 17.182V1.272H7v15.91h2z" fill="#fff"/></svg><svg viewBox="0 0 100 100" id="bedroom" xmlns="http://www.w3.org/2000/svg"><g clip-path="url(#eclip0)"><path d="M84.685 33.76h-69.37a1.172 1.172 0 01-1.172-1.172V8.248c0-.648.525-1.173 1.172-1.173h69.37c.647 0 1.172.525 1.172 1.172v24.341c0 .647-.525 1.172-1.172 1.172zm-68.198-2.344h67.026V9.42H16.487v21.997z"/><path d="M79.307 33.76H20.693a1.172 1.172 0 01-1.172-1.172V13.625c0-.647.525-1.171 1.172-1.171h58.614c.647 0 1.172.524 1.172 1.171v18.963c0 .647-.525 1.172-1.172 1.172zm-57.442-2.344h56.27V14.797h-56.27v16.62z"/><path d="M46.466 33.76H24.227a4.712 4.712 0 01-4.706-4.706V17.16a4.712 4.712 0 014.706-4.707h22.239a4.711 4.711 0 014.706 4.707v11.894a4.711 4.711 0 01-4.706 4.706zM24.227 14.797a2.365 2.365 0 00-2.362 2.363v11.894a2.365 2.365 0 002.362 2.362h22.239a2.365 2.365 0 002.362-2.362V17.16a2.365 2.365 0 00-2.362-2.363H24.227z"/><path d="M75.772 33.76H53.534a4.712 4.712 0 01-4.706-4.706V17.16a4.712 4.712 0 014.706-4.707h22.238a4.711 4.711 0 014.706 4.707v11.894a4.711 4.711 0 01-4.706 4.706zM53.534 14.797a2.365 2.365 0 00-2.362 2.363v11.894a2.365 2.365 0 002.362 2.362h22.238a2.365 2.365 0 002.363-2.362V17.16a2.365 2.365 0 00-2.363-2.363H53.534z"/><path d="M85.533 92.925H14.467a4.712 4.712 0 01-4.706-4.706V36.122a4.712 4.712 0 014.706-4.706h71.066a4.711 4.711 0 014.706 4.706V88.22a4.712 4.712 0 01-4.706 4.706zM14.467 33.76a2.365 2.365 0 00-2.363 2.362V88.22a2.365 2.365 0 002.363 2.362h71.066a2.365 2.365 0 002.362-2.362V36.122a2.365 2.365 0 00-2.362-2.362H14.467zM85.984 9.419H14.016A4.26 4.26 0 019.76 5.164v-.909A4.26 4.26 0 0114.016 0h71.968a4.26 4.26 0 014.255 4.255v.909a4.26 4.26 0 01-4.255 4.255zM14.016 2.344a1.913 1.913 0 00-1.912 1.911v.909a1.913 1.913 0 001.912 1.911h71.968a1.914 1.914 0 001.912-1.911v-.909a1.914 1.914 0 00-1.912-1.911H14.016z"/><path d="M85.984 100H14.016a4.26 4.26 0 01-4.255-4.255v-.909a4.26 4.26 0 014.255-4.255h71.968a4.26 4.26 0 014.255 4.255v.909A4.26 4.26 0 0185.984 100zm-71.968-7.075a1.914 1.914 0 00-1.912 1.911v.909a1.913 1.913 0 001.912 1.911h71.968a1.914 1.914 0 001.912-1.911v-.909a1.914 1.914 0 00-1.912-1.911H14.016z"/></g><defs><clipPath id="eclip0"><path fill="#fff" d="M0 0h100v100H0z"/></clipPath></defs></svg><svg viewBox="0 0 100 100" id="commode" xmlns="http://www.w3.org/2000/svg"><g clip-path="url(#fclip0)"><path d="M82.765 100h-65.53a1.172 1.172 0 01-1.172-1.172V1.172c0-.647.525-1.172 1.172-1.172h65.53c.647 0 1.172.525 1.172 1.172v97.656c0 .647-.525 1.172-1.172 1.172zm-64.358-2.344h63.186V2.344H18.407v95.312z"/><path d="M50 71.494c-.647 0-1.172-.375-1.172-.838V.838C48.828.375 49.352 0 50 0c.647 0 1.172.375 1.172.838v69.818c0 .463-.525.838-1.172.838zM50 100H17.235a1.172 1.172 0 01-1.172-1.172V84.575c0-.647.525-1.172 1.172-1.172H50c.647 0 1.172.525 1.172 1.172v14.253c0 .647-.525 1.172-1.172 1.172zm-31.593-2.344h30.421V85.747H18.407v11.91z"/><path d="M50 85.747H17.235a1.172 1.172 0 01-1.172-1.172V70.322c0-.647.525-1.172 1.172-1.172H50c.647 0 1.172.525 1.172 1.172v14.253c0 .647-.525 1.172-1.172 1.172zm-31.593-2.344h30.42V71.494h-30.42v11.91z"/><path d="M35.267 78.62h-3.299a1.172 1.172 0 010-2.343h3.299a1.172 1.172 0 010 2.344zM43.094 38.354a1.172 1.172 0 01-1.172-1.172v-2.87a1.172 1.172 0 112.344 0v2.87c0 .647-.525 1.172-1.172 1.172zM56.906 52.607a1.172 1.172 0 01-1.172-1.172v-2.87a1.172 1.172 0 112.344 0v2.87c0 .647-.525 1.172-1.172 1.172zM35.267 92.874h-3.299a1.172 1.172 0 110-2.344h3.299a1.172 1.172 0 010 2.344z"/></g><defs><clipPath id="fclip0"><path d="M0 0h100v100H0z"/></clipPath></defs></svg><svg viewBox="0 0 100 100" id="commode_" xmlns="http://www.w3.org/2000/svg"><g clip-path="url(#gclip0)"><path d="M82.765 100h-65.53a1.172 1.172 0 01-1.172-1.172V1.172c0-.647.525-1.172 1.172-1.172h65.53c.647 0 1.172.525 1.172 1.172v97.656c0 .647-.525 1.172-1.172 1.172zm-64.358-2.344h63.186V2.344H18.407v95.312z"/><path d="M50 71.494c-.647 0-1.172-.375-1.172-.838V.838C48.828.375 49.352 0 50 0c.647 0 1.172.375 1.172.838v69.818c0 .463-.525.838-1.172.838zM50 100H17.235a1.172 1.172 0 01-1.172-1.172V84.575c0-.647.525-1.172 1.172-1.172H50c.647 0 1.172.525 1.172 1.172v14.253c0 .647-.525 1.172-1.172 1.172zm-31.593-2.344h30.421V85.747H18.407v11.91z"/><path d="M50 85.747H17.235a1.172 1.172 0 01-1.172-1.172V70.322c0-.647.525-1.172 1.172-1.172H50c.647 0 1.172.525 1.172 1.172v14.253c0 .647-.525 1.172-1.172 1.172zm-31.593-2.344h30.42V71.494h-30.42v11.91z"/><path d="M35.267 78.62h-3.299a1.172 1.172 0 010-2.343h3.299a1.172 1.172 0 010 2.344zM43.094 38.354a1.172 1.172 0 01-1.172-1.172v-2.87a1.172 1.172 0 112.344 0v2.87c0 .647-.525 1.172-1.172 1.172zM56.906 52.607a1.172 1.172 0 01-1.172-1.172v-2.87a1.172 1.172 0 112.344 0v2.87c0 .647-.525 1.172-1.172 1.172zM35.267 92.874h-3.299a1.172 1.172 0 110-2.344h3.299a1.172 1.172 0 010 2.344z"/></g><defs><clipPath id="gclip0"><path d="M0 0h100v100H0z"/></clipPath></defs></svg><svg fill="none" viewBox="0 0 40 40" id="facebook" xmlns="http://www.w3.org/2000/svg"><path fill-rule="evenodd" clip-rule="evenodd" d="M22.085 31.76V20.878h3.003l.398-3.75h-3.401l.005-1.876c0-.978.093-1.502 1.497-1.502h1.878V10h-3.004c-3.608 0-4.878 1.819-4.878 4.878v2.251h-2.25v3.75h2.25v10.88h4.502z" fill="#1E2E36"/></svg><svg viewBox="0 0 40 40" id="facebook-f" xmlns="http://www.w3.org/2000/svg"><path fill-rule="evenodd" clip-rule="evenodd" d="M22.085 31.76V20.878h3.003l.398-3.75h-3.401l.005-1.876c0-.978.093-1.502 1.497-1.502h1.878V10h-3.004c-3.608 0-4.878 1.819-4.878 4.878v2.251h-2.25v3.75h2.25v10.88h4.502z"/></svg><svg fill="none" viewBox="0 0 40 40" id="instagram" xmlns="http://www.w3.org/2000/svg"><path fill-rule="evenodd" clip-rule="evenodd" d="M15.603 9.398c1.138-.052 1.501-.065 4.398-.065h-.003c2.897 0 3.26.013 4.397.065 1.136.052 1.912.232 2.592.495a5.212 5.212 0 011.889 1.23 5.235 5.235 0 011.23 1.89c.263.678.443 1.453.496 2.589.051 1.138.065 1.501.065 4.398s-.014 3.26-.065 4.398c-.053 1.135-.233 1.91-.495 2.588a5.237 5.237 0 01-1.232 1.89 5.219 5.219 0 01-1.888 1.23c-.678.265-1.454.444-2.59.496-1.138.052-1.5.065-4.397.065-2.897 0-3.26-.013-4.398-.065-1.136-.052-1.91-.231-2.59-.495a5.224 5.224 0 01-1.888-1.231 5.227 5.227 0 01-1.23-1.89c-.264-.678-.444-1.453-.496-2.589-.052-1.137-.065-1.5-.065-4.397 0-2.897.014-3.26.065-4.398.05-1.136.23-1.91.495-2.59a5.236 5.236 0 011.231-1.889 5.223 5.223 0 011.89-1.23c.678-.263 1.453-.443 2.589-.495zm4.042 1.857h-.6v-.002c-1.989.002-2.37.015-3.354.06-1.04.048-1.605.221-1.98.368a3.311 3.311 0 00-1.228.798 3.305 3.305 0 00-.798 1.227c-.146.376-.32.94-.367 1.98-.051 1.125-.061 1.46-.061 4.309 0 2.848.01 3.186.06 4.31.048 1.04.222 1.605.368 1.98.194.499.425.853.798 1.227.374.373.73.604 1.227.797.376.146.94.32 1.98.368 1.125.051 1.463.063 4.311.063s3.186-.012 4.31-.063c1.04-.047 1.605-.22 1.98-.367a3.3 3.3 0 001.227-.798c.373-.373.604-.728.798-1.225.146-.376.32-.94.367-1.98.051-1.125.062-1.463.062-4.31 0-2.846-.01-3.184-.062-4.308-.047-1.04-.221-1.605-.367-1.98a3.311 3.311 0 00-.798-1.227 3.3 3.3 0 00-1.226-.798c-.376-.146-.94-.32-1.98-.367-1.125-.051-1.463-.061-4.31-.061h-.357zM14.523 20a5.478 5.478 0 1110.956 0 5.478 5.478 0 01-10.956 0zm9.034 0a3.556 3.556 0 10-7.112 0 3.556 3.556 0 007.112 0zm.858-5.694a1.28 1.28 0 112.56 0 1.28 1.28 0 01-2.56 0z" fill="#1E2E36"/></svg><svg viewBox="0 0 40 40" id="instagram-f" xmlns="http://www.w3.org/2000/svg"><path d="M15.603 9.398c1.138-.052 1.501-.064 4.398-.064h-.003c2.897 0 3.26.012 4.397.064 1.136.052 1.912.232 2.592.495a5.213 5.213 0 011.889 1.23 5.234 5.234 0 011.23 1.89c.263.678.443 1.453.496 2.589.051 1.138.065 1.501.065 4.398s-.014 3.26-.065 4.398c-.053 1.135-.233 1.91-.495 2.589a5.235 5.235 0 01-1.232 1.889 5.218 5.218 0 01-1.888 1.231c-.678.264-1.454.444-2.59.496-1.138.051-1.5.064-4.397.064-2.897 0-3.26-.013-4.398-.064-1.136-.052-1.91-.232-2.59-.496a5.22 5.22 0 01-1.888-1.231 5.226 5.226 0 01-1.23-1.89c-.264-.678-.444-1.453-.496-2.589-.052-1.137-.065-1.5-.065-4.397 0-2.897.014-3.26.065-4.398.05-1.135.23-1.91.495-2.59a5.236 5.236 0 011.231-1.889 5.223 5.223 0 011.89-1.23c.678-.263 1.453-.443 2.589-.495zm4.042 1.858h-.6v-.003c-1.989.002-2.37.016-3.354.06-1.04.048-1.605.221-1.98.368a3.31 3.31 0 00-1.228.798 3.305 3.305 0 00-.798 1.227c-.146.376-.32.94-.367 1.98-.051 1.125-.061 1.46-.061 4.31 0 2.848.01 3.185.06 4.31.048 1.04.222 1.604.368 1.98.194.498.425.853.798 1.226.374.373.73.604 1.227.798.376.146.94.32 1.98.367 1.125.052 1.463.063 4.311.063s3.186-.011 4.31-.063c1.04-.047 1.605-.22 1.98-.367a3.297 3.297 0 001.226-.798c.374-.373.605-.727.799-1.225.146-.376.32-.94.367-1.98.051-1.125.062-1.462.062-4.31 0-2.846-.01-3.184-.062-4.308-.047-1.04-.221-1.604-.367-1.98a3.31 3.31 0 00-.799-1.227 3.3 3.3 0 00-1.225-.798c-.376-.146-.94-.32-1.98-.367-1.125-.051-1.463-.061-4.311-.061h-.356zM14.523 20a5.478 5.478 0 1110.954 0 5.478 5.478 0 01-10.954 0zm9.034 0a3.556 3.556 0 10-7.112 0 3.556 3.556 0 007.112 0zm.858-5.694a1.28 1.28 0 112.56 0 1.28 1.28 0 01-2.56 0z"/></svg><svg viewBox="0 0 100 100" id="kitchen" xmlns="http://www.w3.org/2000/svg"><g clip-path="url(#lclip0)"><path d="M67.788 91.13H32.212a1.172 1.172 0 01-1.172-1.171V62.713c0-.647.525-1.172 1.172-1.172h35.576c.647 0 1.172.524 1.172 1.172v27.245c0 .647-.525 1.171-1.172 1.171zm-34.404-2.343h33.232V63.886H33.384v24.9z"/><path d="M67.788 96.145H32.212a1.172 1.172 0 01-1.172-1.172v-5.015c0-.647.525-1.172 1.172-1.172h35.576c.647 0 1.172.525 1.172 1.172v5.015c0 .647-.525 1.172-1.172 1.172zM33.384 93.8h33.232v-2.67H33.384v2.67zM67.788 63.886H32.212a1.172 1.172 0 01-1.172-1.172V51.162c0-.647.525-1.172 1.172-1.172h35.576c.647 0 1.172.525 1.172 1.172v11.552c0 .647-.525 1.172-1.172 1.172zm-34.404-2.344h33.232v-9.208H33.384v9.208z"/><path d="M50 60.736a3.798 3.798 0 110-7.596 3.798 3.798 0 010 7.596zm0-5.252a1.454 1.454 0 100 2.908 1.454 1.454 0 000-2.908zM59.867 60.736a3.798 3.798 0 110-7.596 3.798 3.798 0 010 7.596zm0-5.252a1.454 1.454 0 100 2.908 1.454 1.454 0 000-2.908zM40.133 60.736a3.798 3.798 0 110-7.596 3.798 3.798 0 010 7.596zm0-5.252a1.454 1.454 0 100 2.908 1.454 1.454 0 000-2.908zM60.909 70.737H39.092a2.756 2.756 0 010-5.512h21.817a2.756 2.756 0 11.002 5.512h-.002zm-21.817-3.169a.412.412 0 000 .825h21.817a.412.412 0 100-.825H39.092z"/><path d="M59.867 87.389H40.133a1.172 1.172 0 01-1.172-1.172V69.565c0-.647.525-1.172 1.172-1.172h19.734c.647 0 1.172.525 1.172 1.172v16.652c0 .647-.525 1.172-1.172 1.172zm-18.562-2.344h17.39V70.737h-17.39v14.308zM42.191 52.334a1.172 1.172 0 01-1.172-1.172v-2.908a1.172 1.172 0 012.344 0v2.908c0 .648-.524 1.172-1.172 1.172zM47.747 52.334a1.172 1.172 0 01-1.172-1.172v-1.736h-1.563a1.172 1.172 0 010-2.344h2.735c.647 0 1.172.525 1.172 1.172v2.908c0 .648-.525 1.172-1.172 1.172zM36.636 52.334a1.172 1.172 0 01-1.172-1.172v-2.908c0-.647.524-1.172 1.172-1.172h2.734a1.172 1.172 0 010 2.344h-1.563v1.736c0 .648-.524 1.172-1.171 1.172zM57.809 52.334a1.172 1.172 0 01-1.172-1.172v-2.908a1.172 1.172 0 012.344 0v2.908c0 .648-.525 1.172-1.172 1.172zM52.253 52.334a1.172 1.172 0 01-1.172-1.172v-2.908c0-.647.525-1.172 1.172-1.172h2.735a1.172 1.172 0 010 2.344h-1.563v1.736c0 .648-.524 1.172-1.172 1.172zM63.364 52.334a1.172 1.172 0 01-1.171-1.172v-1.736H60.63a1.172 1.172 0 010-2.344h2.734c.648 0 1.172.525 1.172 1.172v2.908c0 .648-.524 1.172-1.172 1.172zM73.452 56.602h-2.098a1.172 1.172 0 010-2.344h2.098a1.172 1.172 0 010 2.344z"/><path d="M77.018 96.145h-9.23a1.172 1.172 0 01-1.172-1.172v-43.81c0-.648.525-1.172 1.172-1.172h9.23c.647 0 1.172.524 1.172 1.171v43.81c0 .648-.525 1.173-1.172 1.173zM68.96 93.8h6.886V52.334H68.96v41.467z"/><path d="M98.828 74.24h-21.81a1.172 1.172 0 01-1.172-1.172V51.162c0-.647.525-1.172 1.172-1.172h21.81c.647 0 1.172.525 1.172 1.172v21.906c0 .647-.525 1.172-1.172 1.172zM78.19 71.896h19.466V52.334H78.19v19.562z"/><path d="M90.734 56.602h-5.621a1.172 1.172 0 010-2.344h5.62a1.172 1.172 0 010 2.344zM19.502 56.602h-5.62a1.172 1.172 0 010-2.344h5.62a1.172 1.172 0 010 2.344zM98.828 96.145h-21.81a1.172 1.172 0 01-1.172-1.172V73.068c0-.647.525-1.172 1.172-1.172h21.81c.647 0 1.172.524 1.172 1.172v21.905c0 .647-.525 1.172-1.172 1.172zM78.19 93.8h19.466V74.24H78.19V93.8z"/><path d="M90.734 78.507h-5.621a1.172 1.172 0 010-2.344h5.62a1.172 1.172 0 010 2.344zM16.692 96.145H1.172A1.172 1.172 0 010 94.973v-32.26c0-.646.525-1.171 1.172-1.171h15.52c.647 0 1.172.524 1.172 1.172v32.259c0 .647-.525 1.172-1.172 1.172zM2.344 93.8H15.52V63.886H2.344V93.8z"/><path d="M32.212 96.145h-15.52a1.172 1.172 0 01-1.172-1.172v-32.26c0-.646.525-1.171 1.172-1.171h15.52c.647 0 1.172.524 1.172 1.172v32.259c0 .647-.525 1.172-1.172 1.172zM17.864 93.8H31.04V63.886H17.864V93.8z"/><path d="M20.398 81.966a1.172 1.172 0 01-1.172-1.172v-3.901a1.172 1.172 0 012.343 0v3.901c0 .647-.524 1.172-1.171 1.172zM12.986 81.966a1.172 1.172 0 01-1.171-1.172v-3.901a1.172 1.172 0 012.343 0v3.901c0 .647-.524 1.172-1.171 1.172zM32.212 63.886H1.172A1.172 1.172 0 010 62.714V51.162c0-.647.525-1.172 1.172-1.172h31.04c.647 0 1.172.525 1.172 1.172v11.552c0 .647-.525 1.172-1.172 1.172zM2.344 61.542H31.04v-9.208H2.344v9.208zM66.467 27.777H33.533a2.496 2.496 0 01-2.493-2.493V21.92a2.495 2.495 0 012.493-2.493h32.934a2.496 2.496 0 012.493 2.493v3.365a2.496 2.496 0 01-2.493 2.493zM33.533 21.77a.15.15 0 00-.15.149v3.365a.15.15 0 00.15.15h32.934a.15.15 0 00.15-.15V21.92a.15.15 0 00-.15-.15H33.533z"/><path d="M64.024 21.77H35.976a2.47 2.47 0 01-1.522-4.414l.9-.705A14.668 14.668 0 0041.02 5.028c0-.648.525-1.172 1.172-1.172h15.618c.647 0 1.172.524 1.172 1.172a14.667 14.667 0 005.664 11.623l.9.705a2.469 2.469 0 01-1.52 4.414zM43.324 6.2a16.984 16.984 0 01-6.525 12.297l-.9.704a.126.126 0 00.077.225h28.048a.126.126 0 00.078-.224l-.9-.705A16.984 16.984 0 0156.675 6.2H43.324zM95.2 27.777H76.552a2.937 2.937 0 010-5.874H95.2a2.937 2.937 0 110 5.874zm-18.648-3.53a.593.593 0 000 1.186H95.2a.593.593 0 000-1.186H76.552zM23.448 27.777H4.8a2.937 2.937 0 010-5.874h18.648a2.937 2.937 0 110 5.874zM4.8 24.247a.593.593 0 100 1.186h18.648a.593.593 0 100-1.186H4.8z"/><path d="M21.577 24.247H16.81a1.172 1.172 0 01-1.171-1.172v-4.029c0-.647.524-1.171 1.171-1.171h4.767c.647 0 1.172.524 1.172 1.171v4.03c0 .646-.524 1.171-1.172 1.171zm-3.595-2.344h2.424v-1.685h-2.424v1.685z"/><path d="M22.7 20.218h-7.013a1.172 1.172 0 010-2.343h7.014a1.172 1.172 0 010 2.343zM11.438 24.247H6.67A1.172 1.172 0 015.5 23.075v-4.029c0-.647.524-1.171 1.171-1.171h4.768c.647 0 1.171.524 1.171 1.171v4.03c0 .646-.524 1.171-1.171 1.171zm-3.596-2.344h2.424v-1.685H7.842v1.685z"/><path d="M12.56 20.218H5.548a1.172 1.172 0 010-2.343h7.013a1.172 1.172 0 110 2.343zM21.577 20.218H16.81a1.172 1.172 0 01-1.171-1.172v-4.028c0-.648.524-1.172 1.171-1.172h4.767c.647 0 1.172.524 1.172 1.171v4.03c0 .646-.524 1.171-1.172 1.171zm-3.595-2.344h2.424V16.19h-2.424v1.685z"/><path d="M22.7 16.19h-7.013a1.172 1.172 0 010-2.344h7.014a1.172 1.172 0 010 2.343zM11.438 20.218H6.67A1.172 1.172 0 015.5 19.046v-4.028c0-.648.524-1.172 1.171-1.172h4.768c.647 0 1.171.524 1.171 1.171v4.03c0 .646-.524 1.171-1.171 1.171zm-3.596-2.344h2.424V16.19H7.842v1.685z"/><path d="M12.56 16.19H5.548a1.172 1.172 0 010-2.344h7.013a1.172 1.172 0 110 2.343zM85.876 24.247a7.564 7.564 0 01-6.405-11.587c.215-.34.59-.548.992-.548H91.29c.402 0 .776.207.991.548a7.564 7.564 0 01-6.404 11.587zm-4.721-9.79a5.22 5.22 0 109.443 0h-9.443z"/><path d="M85.767 14.456a1.172 1.172 0 01-1.172-1.172v-7.54a1.172 1.172 0 012.344 0v7.54c0 .647-.525 1.172-1.172 1.172z"/><path d="M85.767 14.456a1.172 1.172 0 01-.829-2L88.993 8.4a1.172 1.172 0 011.657 1.657l-4.055 4.055c-.22.22-.517.344-.828.343z"/><path d="M85.767 14.456c-.31 0-.61-.123-.829-.343l-4.055-4.055a1.172 1.172 0 111.64-1.675l.017.017 4.056 4.056a1.172 1.172 0 01-.83 2zM60.857 49.426h-5.715a5.877 5.877 0 01-5.87-5.87V40.8c0-.647.525-1.172 1.172-1.172h15.111c.648 0 1.172.525 1.172 1.172v2.755a5.877 5.877 0 01-5.87 5.87zm-9.241-7.453v1.583a3.53 3.53 0 003.526 3.527h5.715a3.53 3.53 0 003.527-3.527v-1.583H51.616z"/><path d="M67.788 44.038h-2.233a1.172 1.172 0 010-2.343h2.233a1.172 1.172 0 110 2.343zM50.062 44.038H47.83a1.172 1.172 0 010-2.343h2.232a1.172 1.172 0 010 2.343z"/><path d="M65.555 41.973H50.444a1.172 1.172 0 01-.966-1.836c1.64-2.385 4.905-3.867 8.522-3.867s6.882 1.482 8.521 3.867a1.172 1.172 0 01-.966 1.836zm-11.964-2.344h8.818a10.076 10.076 0 00-8.818 0z"/><path d="M56.569 38.703c-.287 0-.565-.106-.779-.297a3.329 3.329 0 114.42 0 1.172 1.172 0 11-1.557-1.751.985.985 0 10-1.305 0 1.172 1.172 0 01-.78 2.047zM13.903 52.334h-4.95a1.172 1.172 0 01-1.172-1.172V38.575c0-.647.525-1.171 1.172-1.171h4.95c.647 0 1.172.524 1.172 1.171v12.587c0 .648-.525 1.172-1.172 1.172zm-3.778-2.343h2.606V39.747h-2.606v10.244z"/><path d="M8.953 52.334h-4.95a1.172 1.172 0 01-1.171-1.172V38.575c0-.647.524-1.171 1.171-1.171h4.95c.647 0 1.172.524 1.172 1.171v12.587c0 .648-.525 1.172-1.172 1.172zm-3.778-2.343h2.606V39.747H5.175v10.244zM24.774 52.334h-2.21a4.056 4.056 0 01-4.05-4.05v-4.11c0-.647.524-1.172 1.171-1.172h7.968c.647 0 1.172.525 1.172 1.172v4.11a4.055 4.055 0 01-4.05 4.05zm-3.916-6.988v2.937a1.709 1.709 0 001.707 1.707h2.21a1.709 1.709 0 001.707-1.707v-2.937h-5.624z"/><path d="M28.339 45.346H19a2.216 2.216 0 01-2.213-2.213v-1.216A2.216 2.216 0 0119 39.704h9.339a2.216 2.216 0 012.213 2.213v1.215a2.216 2.216 0 01-2.213 2.214zm-9.209-2.344h9.079v-.955H19.13v.955zM77.97 52.334h-6.034a1.172 1.172 0 01-1.172-1.172v-8.246c0-.647.525-1.172 1.172-1.172h6.034c.647 0 1.172.524 1.172 1.172v8.246c0 .648-.525 1.172-1.172 1.172zm-4.862-2.344h3.69v-5.902h-3.69v5.902z"/><path d="M77.97 44.087h-6.034a1.172 1.172 0 01-1.172-1.171v-3.603c0-.647.525-1.172 1.172-1.172h6.034c.647 0 1.172.525 1.172 1.172v3.603c0 .647-.525 1.172-1.172 1.172zm-4.862-2.343h3.69v-1.259h-3.69v1.259zM92.437 48.37c-1.915 0-3.414-1.842-3.414-4.195s1.5-4.196 3.414-4.196c1.915 0 3.414 1.843 3.414 4.196 0 2.353-1.5 4.196-3.414 4.196zm0-6.047c-.505 0-1.07.792-1.07 1.852s.565 1.852 1.07 1.852c.505 0 1.07-.792 1.07-1.852s-.565-1.852-1.07-1.852z"/><path d="M92.437 42.3c-.546 0-1.02-.377-1.142-.91l-1.791-7.813a3.01 3.01 0 115.867 0l-1.792 7.813c-.122.533-.596.91-1.142.91zm0-10.061a.666.666 0 00-.649.814l.649 2.83.649-2.83a.666.666 0 00-.65-.814zM84.008 42.3c-.546 0-1.02-.377-1.142-.91l-1.792-7.813a3.01 3.01 0 115.867 0L85.15 41.39c-.122.533-.596.91-1.142.91zm0-10.061a.666.666 0 00-.649.814l.649 2.831.649-2.83a.666.666 0 00-.65-.815z"/><path d="M86.7 46.088h-5.385a1.172 1.172 0 01-1.16-1.006 4.714 4.714 0 011.083-3.765c.757-.873 1.767-1.374 2.77-1.374 1.003 0 2.013.5 2.77 1.374a4.714 4.714 0 011.083 3.765 1.172 1.172 0 01-1.16 1.006zm-4.165-2.344h2.945a2.274 2.274 0 00-.473-.892c-.298-.343-.69-.566-1-.566-.308 0-.7.222-.998.566a2.277 2.277 0 00-.474.892z"/></g><defs><clipPath id="lclip0"><path d="M0 0h100v100H0z"/></clipPath></defs></svg><svg viewBox="0 0 100 100" id="living-room" xmlns="http://www.w3.org/2000/svg"><g clip-path="url(#mclip0)"><path d="M46.666 87.18H16.765a4.511 4.511 0 01-4.507-4.507V71.057a4.512 4.512 0 014.507-4.507h29.9a4.512 4.512 0 014.507 4.507v11.616a4.511 4.511 0 01-4.506 4.506zM16.765 68.893a2.165 2.165 0 00-2.163 2.163v11.615a2.165 2.165 0 002.163 2.163h29.9a2.165 2.165 0 002.163-2.162V71.056a2.165 2.165 0 00-2.163-2.163h-29.9z"/><path d="M10.095 87.18H4.506A4.512 4.512 0 010 82.672V60.436a4.512 4.512 0 014.506-4.507h5.59a4.511 4.511 0 014.506 4.507v22.237a4.511 4.511 0 01-4.507 4.506zM4.506 58.272a2.165 2.165 0 00-2.162 2.163v22.237a2.165 2.165 0 002.162 2.162h5.59a2.165 2.165 0 002.162-2.162V60.436a2.165 2.165 0 00-2.163-2.163H4.506z"/><path d="M86.57 78.037H13.43a1.172 1.172 0 010-2.344h73.14a1.172 1.172 0 110 2.344zM46.666 68.894H16.765a4.511 4.511 0 01-4.507-4.506V46.54a4.511 4.511 0 014.507-4.507h29.9a4.511 4.511 0 014.507 4.507v17.847a4.511 4.511 0 01-4.506 4.506zM16.765 44.378a2.165 2.165 0 00-2.163 2.162v17.847a2.165 2.165 0 002.163 2.163h29.9a2.165 2.165 0 002.163-2.163V46.541a2.165 2.165 0 00-2.163-2.163h-29.9z"/><path d="M83.235 68.894h-29.9a4.511 4.511 0 01-4.507-4.506V46.54a4.511 4.511 0 014.506-4.507h29.901a4.511 4.511 0 014.507 4.507v17.847a4.511 4.511 0 01-4.507 4.506zm-29.9-24.516a2.165 2.165 0 00-2.163 2.162v17.847a2.165 2.165 0 002.163 2.163h29.9a2.165 2.165 0 002.163-2.163V46.541a2.165 2.165 0 00-2.163-2.163h-29.9z"/><path d="M83.235 87.18h-29.9a4.511 4.511 0 01-4.507-4.507V71.057a4.512 4.512 0 014.506-4.507h29.901a4.512 4.512 0 014.507 4.507v11.616a4.511 4.511 0 01-4.507 4.506zm-29.9-18.286a2.165 2.165 0 00-2.163 2.163v11.615a2.165 2.165 0 002.163 2.163h29.9a2.165 2.165 0 002.163-2.162V71.056a2.165 2.165 0 00-2.163-2.163h-29.9z"/><path d="M95.493 87.18h-5.588a4.512 4.512 0 01-4.507-4.507V60.436a4.511 4.511 0 014.507-4.507h5.588A4.512 4.512 0 01100 60.436v22.237a4.512 4.512 0 01-4.507 4.506zm-5.588-28.907a2.165 2.165 0 00-2.163 2.163v22.237a2.165 2.165 0 002.162 2.162h5.59a2.165 2.165 0 002.162-2.162V60.436a2.165 2.165 0 00-2.163-2.163h-5.588zM52.74 68.894h-5.48a1.172 1.172 0 010-2.344h5.48a1.172 1.172 0 010 2.344zM71.45 38.639h-42.9a1.172 1.172 0 01-1.172-1.172V9.625c0-.647.524-1.172 1.171-1.172H71.45c.648 0 1.172.525 1.172 1.172v27.842c0 .647-.524 1.172-1.172 1.172zm-41.729-2.344H70.28V10.797H29.722v25.498z"/><path d="M67.547 34.735H32.453a1.172 1.172 0 01-1.172-1.172V13.528c0-.647.525-1.172 1.172-1.172h35.094c.647 0 1.172.525 1.172 1.172v20.035c0 .647-.525 1.172-1.172 1.172zm-33.922-2.344h32.75v-17.69h-32.75v17.69z"/><path d="M36.654 30.44a1.172 1.172 0 01-.83-2l6.027-6.027a1.172 1.172 0 011.657 0l3.657 3.657a1.172 1.172 0 01-1.657 1.657l-2.828-2.828-5.198 5.198c-.22.22-.518.343-.828.343z"/><path d="M63.346 30.38c-.31 0-.61-.123-.828-.343l-4.279-4.28c-1.605-1.604-3.21-3.209-4.813-4.814l-.752-.751-.71-.71-6.522 6.522a1.172 1.172 0 01-1.657-1.658l7.35-7.35a1.172 1.172 0 011.659.001 856.7 856.7 0 001.537 1.537l.753.752c1.603 1.605 3.207 3.21 4.813 4.813 1.425 1.427 2.85 2.854 4.278 4.28a1.172 1.172 0 01-.829 2z"/><path d="M59.069 26.1c-.31 0-.609-.123-.829-.343-1.607-1.604-3.212-3.21-4.814-4.814a1.172 1.172 0 01-.256-1.273 4.862 4.862 0 116.343 6.343c-.141.058-.292.087-.444.087zm-3.351-6.179c1.18 1.182 2.362 2.363 3.544 3.545a2.52 2.52 0 10-3.544-3.545zM92.699 91.547a3.078 3.078 0 01-2.992-2.337l-.728-2.92a1.172 1.172 0 011.138-1.455h5.164a1.172 1.172 0 011.138 1.456l-.728 2.919a3.078 3.078 0 01-2.992 2.337zm-1.082-4.368l.365 1.464a.74.74 0 001.434 0l.365-1.464h-2.165zM7.301 91.547a3.078 3.078 0 01-2.992-2.337l-.728-2.92a1.172 1.172 0 011.138-1.455h5.164a1.172 1.172 0 011.138 1.456l-.728 2.919A3.078 3.078 0 017.3 91.547zm-1.082-4.368l.365 1.464a.74.74 0 001.434 0l.365-1.464H6.22z"/></g><defs><clipPath id="mclip0"><path d="M0 0h100v100H0z"/></clipPath></defs></svg><svg fill="none" viewBox="0 0 40 40" id="telegram" xmlns="http://www.w3.org/2000/svg"><path fill-rule="evenodd" clip-rule="evenodd" d="M16.674 24.069v-.001l9.273-8.369c.407-.361-.089-.537-.629-.21L13.873 22.71l-4.944-1.543c-1.068-.327-1.076-1.06.24-1.588l19.264-7.428c.88-.4 1.73.211 1.394 1.558l-3.281 15.46c-.23 1.099-.893 1.362-1.813.854l-4.998-3.692-2.402 2.336-.022.022c-.269.261-.491.478-.978.478l.34-5.098z" fill="#1E2E36"/></svg><svg viewBox="0 0 40 40" id="telegram-f" xmlns="http://www.w3.org/2000/svg"><path d="M16.674 24.068l9.273-8.37c.407-.36-.089-.537-.629-.209L13.873 22.71l-4.944-1.543c-1.068-.327-1.076-1.06.24-1.588l19.264-7.429c.88-.399 1.73.212 1.394 1.559l-3.281 15.46c-.23 1.099-.893 1.361-1.813.854l-4.998-3.692-2.402 2.335-.022.022c-.269.262-.491.478-.978.478l.34-5.098z"/></svg><svg viewBox="0 0 100 100" id="wardrobe1" xmlns="http://www.w3.org/2000/svg"><g clip-path="url(#pclip0)"><path d="M93.545 42.075H6.455a1.172 1.172 0 01-1.172-1.172V15.43c0-.647.525-1.172 1.172-1.172h87.09c.647 0 1.172.524 1.172 1.172v25.472c0 .647-.525 1.172-1.172 1.172zM7.627 39.73h84.746V16.602H7.627v23.129z"/><path d="M93.545 67.547H6.455a1.172 1.172 0 01-1.172-1.172V40.903c0-.648.525-1.172 1.172-1.172h87.09c.647 0 1.172.524 1.172 1.172v25.472c0 .647-.525 1.172-1.172 1.172zM7.627 65.203h84.746V42.075H7.627v23.128z"/><path d="M93.545 93.019H6.455a1.172 1.172 0 01-1.172-1.172V66.375c0-.647.525-1.172 1.172-1.172h87.09c.647 0 1.172.525 1.172 1.172v25.472c0 .647-.525 1.172-1.172 1.172zM7.627 90.675h84.746V67.547H7.627v23.128zM52.192 29.339h-4.384a1.172 1.172 0 110-2.344h4.384a1.172 1.172 0 010 2.344zM52.192 54.81h-4.384a1.172 1.172 0 110-2.343h4.384a1.172 1.172 0 010 2.344z"/><path d="M52.192 80.283h-4.384a1.172 1.172 0 110-2.344h4.384a1.172 1.172 0 010 2.344zM96.875 16.603H3.125A3.129 3.129 0 010 13.478v-3.372a3.129 3.129 0 013.125-3.125h93.75A3.129 3.129 0 01100 10.106v3.372a3.129 3.129 0 01-3.125 3.125zM3.125 9.325c-.431 0-.78.35-.781.781v3.372c0 .43.35.78.781.78h93.75c.431 0 .78-.35.781-.78v-3.372c0-.431-.35-.78-.781-.781H3.125z"/></g><defs><clipPath id="pclip0"><path d="M0 0h100v100H0z"/></clipPath></defs></svg><svg fill="none" viewBox="0 0 100 100" id="wardrobe_" xmlns="http://www.w3.org/2000/svg"><g clip-path="url(#qclip0)" fill="#1E2E36"><path d="M82.765 100h-65.53a1.172 1.172 0 01-1.172-1.172V1.172c0-.647.525-1.172 1.172-1.172h65.53c.647 0 1.172.525 1.172 1.172v97.656c0 .647-.525 1.172-1.172 1.172zm-64.358-2.344h63.186V2.344H18.407v95.312z"/><path d="M50 71.494c-.647 0-1.172-.375-1.172-.838V.838C48.828.375 49.352 0 50 0c.647 0 1.172.375 1.172.838v69.818c0 .463-.525.838-1.172.838zM50 100H17.235a1.172 1.172 0 01-1.172-1.172V84.575c0-.647.525-1.172 1.172-1.172H50c.647 0 1.172.525 1.172 1.172v14.253c0 .647-.525 1.172-1.172 1.172zm-31.593-2.344h30.421V85.747H18.407v11.91z"/><path d="M50 85.747H17.235a1.172 1.172 0 01-1.172-1.172V70.322c0-.647.525-1.172 1.172-1.172H50c.647 0 1.172.525 1.172 1.172v14.253c0 .647-.525 1.172-1.172 1.172zm-31.593-2.344h30.42V71.494h-30.42v11.91z"/><path d="M35.267 78.62h-3.299a1.172 1.172 0 010-2.343h3.299a1.172 1.172 0 010 2.344zM43.094 38.354a1.172 1.172 0 01-1.172-1.172v-2.87a1.172 1.172 0 112.344 0v2.87c0 .647-.525 1.172-1.172 1.172zM56.906 52.607a1.172 1.172 0 01-1.172-1.172v-2.87a1.172 1.172 0 112.344 0v2.87c0 .647-.525 1.172-1.172 1.172zM35.267 92.874h-3.299a1.172 1.172 0 110-2.344h3.299a1.172 1.172 0 010 2.344z"/></g><defs><clipPath id="qclip0"><path fill="#fff" d="M0 0h100v100H0z"/></clipPath></defs></svg></svg>